# xmcd
#
# Track frame offsets:
#	150
#	68307
#	147944
#	229590
#
# Disc length: 4052 seconds
#
# Revision: 0
# Processed by: cddbd v1.5.2PL0 Copyright (c) Steve Scherf et al.
# Submitted via: EasyCDDAExtractor 12.0.1.1
#
DISCID=290fd204
DTITLE=Frank Zappa and the Mothers of Invention - Roxy and Elsewhere
DYEAR=1974
DGENRE=Classic Rock
TTITLE0=Penguin In Bondage-Pygmy Twylyte-Dummy Up
TTITLE1=Village Of The Sun-Echidna's Arf-Don't You Ever Wash That Thing?
TTITLE2=Cheepnis-Son Of Orange County-More Trouble Every Day
TTITLE3=Bebop Tango
EXTD=
EXTT0=
EXTT1=
EXTT2=
EXTT3=
PLAYORDER=
